<?xml version="1.0" encoding="UTF-8"?>
<svg xmlns="http://www.w3.org/2000/svg" xmlns:xlink="http://www.w3.org/1999/xlink" width="375pt" height="374.999991pt" viewBox="0 0 375 374.999991" version="1.2">
<defs>
<clipPath id="clip1">
  <path d="M 7.335938 7.335938 L 367.335938 7.335938 L 367.335938 367.335938 L 7.335938 367.335938 Z M 7.335938 7.335938 "/>
</clipPath>
</defs>
<g id="surface1">
<g clip-path="url(#clip1)" clip-rule="nonzero">
<path style=" stroke:none;fill-rule:nonzero;fill:rgb(50.588989%,69.018555%,47.059631%);fill-opacity:1;" d="M 113.699219 7.335938 C 55.058594 7.335938 7.335938 55.058594 7.335938 113.699219 L 7.335938 260.972656 C 7.335938 319.617188 55.058594 367.335938 113.699219 367.335938 L 260.972656 367.335938 C 319.617188 367.335938 367.335938 319.617188 367.335938 260.972656 L 367.335938 113.699219 C 367.335938 55.058594 319.617188 7.335938 260.972656 7.335938 Z M 113.699219 23.699219 L 260.972656 23.699219 C 310.773438 23.699219 350.972656 63.902344 350.972656 113.699219 L 350.972656 260.972656 C 350.972656 310.773438 310.773438 350.972656 260.972656 350.972656 L 113.699219 350.972656 C 63.902344 350.972656 23.699219 310.773438 23.699219 260.972656 L 23.699219 113.699219 C 23.699219 63.902344 63.902344 23.699219 113.699219 23.699219 Z M 285.519531 72.792969 C 284.984375 72.792969 284.449219 72.816406 283.914062 72.871094 C 283.382812 72.921875 282.851562 73 282.328125 73.105469 C 281.800781 73.210938 281.28125 73.339844 280.769531 73.496094 C 280.253906 73.652344 279.75 73.832031 279.257812 74.035156 C 278.761719 74.242188 278.277344 74.472656 277.804688 74.722656 C 277.332031 74.976562 276.875 75.25 276.425781 75.550781 C 275.980469 75.847656 275.550781 76.164062 275.136719 76.503906 C 274.722656 76.847656 274.328125 77.207031 273.949219 77.585938 C 273.570312 77.964844 273.210938 78.359375 272.871094 78.773438 C 272.53125 79.1875 272.210938 79.617188 271.914062 80.0625 C 271.613281 80.507812 271.339844 80.96875 271.085938 81.441406 C 270.835938 81.914062 270.605469 82.398438 270.402344 82.894531 C 270.195312 83.386719 270.015625 83.890625 269.859375 84.40625 C 269.703125 84.917969 269.574219 85.4375 269.46875 85.960938 C 269.363281 86.488281 269.285156 87.019531 269.234375 87.550781 C 269.179688 88.085938 269.15625 88.621094 269.15625 89.15625 C 269.15625 89.691406 269.179688 90.226562 269.234375 90.757812 C 269.285156 91.292969 269.363281 91.820312 269.46875 92.347656 C 269.574219 92.875 269.703125 93.390625 269.859375 93.90625 C 270.015625 94.417969 270.195312 94.921875 270.402344 95.417969 C 270.605469 95.914062 270.835938 96.394531 271.085938 96.867188 C 271.339844 97.339844 271.613281 97.800781 271.914062 98.246094 C 272.210938 98.691406 272.53125 99.121094 272.871094 99.535156 C 273.210938 99.949219 273.570312 100.347656 273.949219 100.726562 C 274.328125 101.105469 274.722656 101.464844 275.136719 101.804688 C 275.550781 102.144531 275.980469 102.464844 276.425781 102.761719 C 276.875 103.058594 277.332031 103.332031 277.804688 103.585938 C 278.277344 103.839844 278.761719 104.066406 279.257812 104.273438 C 279.75 104.476562 280.253906 104.660156 280.769531 104.8125 C 281.28125 104.96875 281.800781 105.101562 282.328125 105.203125 C 282.851562 105.308594 283.382812 105.386719 283.914062 105.441406 C 284.449219 105.492188 284.984375 105.519531 285.519531 105.519531 C 286.054688 105.519531 286.589844 105.492188 287.121094 105.441406 C 287.65625 105.386719 288.183594 105.308594 288.710938 105.203125 C 289.238281 105.101562 289.757812 104.96875 290.269531 104.8125 C 290.78125 104.660156 291.285156 104.476562 291.78125 104.273438 C 292.277344 104.066406 292.761719 103.839844 293.234375 103.585938 C 293.707031 103.332031 294.164062 103.058594 294.609375 102.761719 C 295.054688 102.464844 295.484375 102.144531 295.898438 101.804688 C 296.3125 101.464844 296.710938 101.105469 297.089844 100.726562 C 297.46875 100.347656 297.828125 99.949219 298.167969 99.535156 C 298.507812 99.121094 298.828125 98.691406 299.125 98.246094 C 299.421875 97.800781 299.699219 97.339844 299.949219 96.867188 C 300.203125 96.394531 300.433594 95.914062 300.636719 95.417969 C 300.84375 94.921875 301.023438 94.417969 301.179688 93.90625 C 301.332031 93.390625 301.464844 92.875 301.566406 92.347656 C 301.671875 91.820312 301.75 91.292969 301.804688 90.757812 C 301.855469 90.226562 301.882812 89.691406 301.882812 89.15625 C 301.882812 88.621094 301.855469 88.085938 301.804688 87.550781 C 301.75 87.019531 301.671875 86.488281 301.566406 85.960938 C 301.464844 85.4375 301.332031 84.917969 301.179688 84.40625 C 301.023438 83.890625 300.84375 83.386719 300.636719 82.894531 C 300.433594 82.398438 300.203125 81.914062 299.949219 81.441406 C 299.699219 80.96875 299.421875 80.507812 299.125 80.0625 C 298.828125 79.617188 298.507812 79.1875 298.167969 78.773438 C 297.828125 78.359375 297.46875 77.964844 297.089844 77.585938 C 296.710938 77.207031 296.3125 76.847656 295.898438 76.503906 C 295.484375 76.164062 295.054688 75.847656 294.609375 75.550781 C 294.164062 75.25 293.707031 74.976562 293.234375 74.722656 C 292.761719 74.472656 292.277344 74.242188 291.78125 74.035156 C 291.285156 73.832031 290.78125 73.652344 290.269531 73.496094 C 289.757812 73.339844 289.238281 73.210938 288.710938 73.105469 C 288.183594 73 287.65625 72.921875 287.121094 72.871094 C 286.589844 72.816406 286.054688 72.792969 285.519531 72.792969 Z M 187.335938 97.335938 C 137.726562 97.335938 97.335938 137.726562 97.335938 187.335938 C 97.335938 236.945312 137.726562 277.335938 187.335938 277.335938 C 236.945312 277.335938 277.335938 236.945312 277.335938 187.335938 C 277.335938 137.726562 236.945312 97.335938 187.335938 97.335938 Z M 187.335938 113.699219 C 228.101562 113.699219 260.972656 146.570312 260.972656 187.335938 C 260.972656 228.101562 228.101562 260.972656 187.335938 260.972656 C 146.570312 260.972656 113.699219 228.101562 113.699219 187.335938 C 113.699219 146.570312 146.570312 113.699219 187.335938 113.699219 Z M 187.335938 113.699219 "/>
</g>
</g>
</svg>
