<?xml version="1.0" encoding="UTF-8"?>
<svg xmlns="http://www.w3.org/2000/svg" xmlns:xlink="http://www.w3.org/1999/xlink" width="375pt" height="374.999991pt" viewBox="0 0 375 374.999991" version="1.2">
<defs>
<clipPath id="clip1">
  <path d="M 6.847656 6.847656 L 368.347656 6.847656 L 368.347656 368.347656 L 6.847656 368.347656 Z M 6.847656 6.847656 "/>
</clipPath>
</defs>
<g id="surface1">
<g clip-path="url(#clip1)" clip-rule="nonzero">
<path style=" stroke:none;fill-rule:nonzero;fill:rgb(50.588989%,69.018555%,47.059631%);fill-opacity:1;" d="M 89.007812 6.847656 C 43.726562 6.847656 6.847656 43.726562 6.847656 89.007812 L 6.847656 286.1875 C 6.847656 331.46875 43.726562 368.347656 89.007812 368.347656 L 286.1875 368.347656 C 331.46875 368.347656 368.347656 331.46875 368.347656 286.1875 L 368.347656 89.007812 C 368.347656 43.71875 331.46875 6.847656 286.1875 6.847656 Z M 89.007812 23.28125 L 286.1875 23.28125 C 322.589844 23.28125 351.914062 52.597656 351.914062 89.007812 L 351.914062 286.1875 C 351.914062 322.589844 322.589844 351.914062 286.1875 351.914062 L 89.007812 351.914062 C 52.605469 351.914062 23.28125 322.589844 23.28125 286.1875 L 23.28125 89.007812 C 23.28125 52.605469 52.605469 23.28125 89.007812 23.28125 Z M 234.375 97.222656 C 204.78125 97.222656 180.648438 121.449219 180.648438 151.074219 C 180.648438 151.289062 180.726562 151.488281 180.730469 151.703125 C 149.390625 147.523438 121.664062 132.019531 102.613281 108.601562 C 102.40625 108.34375 102.183594 108.097656 101.941406 107.871094 C 101.703125 107.640625 101.453125 107.425781 101.1875 107.226562 C 100.925781 107.027344 100.648438 106.84375 100.363281 106.675781 C 100.074219 106.511719 99.78125 106.363281 99.476562 106.234375 C 99.171875 106.101562 98.859375 105.992188 98.542969 105.898438 C 98.222656 105.804688 97.902344 105.730469 97.574219 105.679688 C 97.25 105.625 96.917969 105.589844 96.589844 105.574219 C 96.257812 105.5625 95.925781 105.566406 95.597656 105.59375 C 95.265625 105.621094 94.941406 105.664062 94.613281 105.730469 C 94.289062 105.796875 93.96875 105.882812 93.65625 105.984375 C 93.34375 106.089844 93.035156 106.210938 92.734375 106.355469 C 92.4375 106.496094 92.144531 106.652344 91.867188 106.832031 C 91.585938 107.007812 91.316406 107.199219 91.058594 107.410156 C 90.800781 107.617188 90.558594 107.839844 90.328125 108.078125 C 90.097656 108.316406 89.882812 108.570312 89.683594 108.832031 C 89.484375 109.097656 89.300781 109.371094 89.136719 109.660156 C 84.511719 117.625 81.882812 126.910156 81.882812 136.730469 C 81.882812 145.480469 84.308594 153.625 88.027344 160.960938 C 87.570312 161.058594 87.125 161.191406 86.691406 161.363281 C 86.257812 161.539062 85.839844 161.746094 85.441406 161.988281 C 85.042969 162.234375 84.667969 162.511719 84.316406 162.816406 C 83.964844 163.125 83.640625 163.460938 83.347656 163.824219 C 83.050781 164.1875 82.789062 164.574219 82.5625 164.980469 C 82.332031 165.390625 82.140625 165.8125 81.984375 166.253906 C 81.828125 166.695312 81.710938 167.144531 81.632812 167.605469 C 81.550781 168.066406 81.511719 168.53125 81.511719 169 L 81.511719 169.578125 C 81.511719 185.503906 88.941406 199.300781 99.96875 209.179688 C 99.410156 209.714844 98.941406 210.3125 98.554688 210.976562 C 98.167969 211.644531 97.878906 212.347656 97.691406 213.09375 C 97.5 213.839844 97.417969 214.597656 97.441406 215.367188 C 97.46875 216.136719 97.597656 216.886719 97.832031 217.621094 C 102.421875 231.929688 113.101562 243.144531 126.507812 249.457031 C 115.789062 254.488281 104.316406 258.089844 91.65625 258.089844 C 88.28125 258.089844 85 257.914062 81.785156 257.527344 C 81.328125 257.472656 80.867188 257.457031 80.40625 257.476562 C 79.945312 257.5 79.488281 257.558594 79.039062 257.65625 C 78.585938 257.757812 78.144531 257.890625 77.71875 258.0625 C 77.289062 258.238281 76.878906 258.445312 76.484375 258.6875 C 76.089844 258.929688 75.722656 259.203125 75.375 259.503906 C 75.027344 259.808594 74.707031 260.140625 74.414062 260.5 C 74.125 260.859375 73.863281 261.238281 73.636719 261.640625 C 73.410156 262.042969 73.21875 262.460938 73.0625 262.894531 C 72.902344 263.328125 72.785156 263.773438 72.703125 264.230469 C 72.621094 264.683594 72.578125 265.140625 72.574219 265.601562 C 72.566406 266.066406 72.601562 266.523438 72.675781 266.980469 C 72.746094 267.4375 72.859375 267.882812 73.007812 268.320312 C 73.15625 268.757812 73.339844 269.179688 73.558594 269.585938 C 73.777344 269.992188 74.027344 270.378906 74.3125 270.742188 C 74.597656 271.105469 74.910156 271.445312 75.25 271.753906 C 75.59375 272.066406 75.957031 272.347656 76.347656 272.597656 C 97.738281 286.371094 123.238281 294.40625 150.546875 294.40625 C 194.675781 294.40625 229.546875 275.824219 252.859375 249.3125 C 276.171875 222.804688 288.273438 188.59375 288.273438 156.371094 C 288.273438 155.394531 288.230469 154.457031 288.210938 153.5 C 296.214844 147.058594 303.75 139.953125 309.457031 131.386719 C 309.921875 130.679688 310.273438 129.921875 310.503906 129.105469 C 310.734375 128.292969 310.839844 127.464844 310.816406 126.617188 C 310.789062 125.773438 310.640625 124.949219 310.359375 124.152344 C 310.082031 123.351562 309.691406 122.613281 309.183594 121.9375 C 308.675781 121.257812 308.078125 120.671875 307.390625 120.179688 C 306.707031 119.6875 305.960938 119.308594 305.15625 119.046875 C 304.351562 118.78125 303.527344 118.648438 302.679688 118.640625 C 301.832031 118.628906 301.007812 118.75 300.199219 119 C 301.539062 116.390625 303.414062 114.117188 304.320312 111.28125 C 304.578125 110.484375 304.707031 109.671875 304.714844 108.835938 C 304.71875 108 304.601562 107.183594 304.359375 106.386719 C 304.117188 105.585938 303.761719 104.84375 303.292969 104.152344 C 302.824219 103.464844 302.261719 102.859375 301.609375 102.339844 C 300.957031 101.820312 300.238281 101.410156 299.460938 101.109375 C 298.683594 100.808594 297.878906 100.628906 297.042969 100.574219 C 296.210938 100.519531 295.390625 100.585938 294.578125 100.78125 C 293.765625 100.976562 293.003906 101.289062 292.285156 101.714844 C 285.105469 105.984375 277.054688 108.804688 268.699219 110.765625 C 259.304688 102.742188 247.621094 97.222656 234.375 97.222656 Z M 234.375 113.65625 C 245.148438 113.65625 254.789062 118.183594 261.589844 125.464844 C 262.066406 125.972656 262.597656 126.414062 263.1875 126.789062 C 263.777344 127.160156 264.40625 127.453125 265.070312 127.667969 C 265.730469 127.878906 266.414062 128.007812 267.109375 128.046875 C 267.804688 128.085938 268.496094 128.039062 269.179688 127.902344 C 270.449219 127.652344 271.472656 126.839844 272.726562 126.539062 C 272.539062 126.65625 272.429688 126.859375 272.242188 126.972656 C 271.46875 127.4375 270.789062 128.015625 270.203125 128.707031 C 269.617188 129.398438 269.160156 130.164062 268.828125 131.007812 C 268.496094 131.847656 268.308594 132.722656 268.265625 133.625 C 268.222656 134.527344 268.324219 135.414062 268.574219 136.285156 C 268.824219 137.15625 269.207031 137.960938 269.722656 138.707031 C 270.238281 139.449219 270.863281 140.089844 271.589844 140.625 C 272.316406 141.164062 273.113281 141.570312 273.972656 141.847656 C 274.835938 142.121094 275.71875 142.25 276.625 142.234375 C 276.046875 142.675781 275.707031 143.378906 275.117188 143.804688 C 274.566406 144.203125 274.074219 144.660156 273.636719 145.179688 C 273.199219 145.699219 272.832031 146.265625 272.535156 146.875 C 272.238281 147.488281 272.019531 148.125 271.882812 148.789062 C 271.742188 149.453125 271.6875 150.125 271.714844 150.800781 C 271.792969 152.65625 271.84375 154.519531 271.84375 156.371094 C 271.84375 184.433594 261.050781 215.136719 240.535156 238.464844 C 220.023438 261.792969 190.128906 277.972656 150.546875 277.972656 C 136.929688 277.972656 124.128906 275.226562 111.9375 271.074219 C 127.113281 267.863281 141.476562 262.5 153.242188 253.246094 C 153.90625 252.71875 154.476562 252.109375 154.953125 251.40625 C 155.429688 250.707031 155.785156 249.949219 156.027344 249.136719 C 156.269531 248.328125 156.382812 247.496094 156.367188 246.652344 C 156.355469 245.804688 156.210938 244.980469 155.941406 244.175781 C 155.671875 243.375 155.289062 242.632812 154.789062 241.945312 C 154.289062 241.261719 153.699219 240.671875 153.015625 240.167969 C 152.332031 239.667969 151.589844 239.28125 150.789062 239.011719 C 149.988281 238.738281 149.164062 238.59375 148.316406 238.578125 C 136.675781 238.367188 127.695312 231.769531 121.003906 223.238281 C 123.480469 222.917969 126.042969 222.894531 128.402344 222.242188 C 128.84375 222.121094 129.273438 221.964844 129.691406 221.769531 C 130.109375 221.578125 130.503906 221.351562 130.882812 221.089844 C 131.261719 220.828125 131.617188 220.539062 131.945312 220.21875 C 132.277344 219.902344 132.578125 219.554688 132.851562 219.1875 C 133.121094 218.816406 133.363281 218.425781 133.570312 218.015625 C 133.773438 217.605469 133.945312 217.179688 134.082031 216.742188 C 134.21875 216.304688 134.316406 215.855469 134.375 215.402344 C 134.4375 214.945312 134.457031 214.488281 134.441406 214.027344 C 134.425781 213.570312 134.371094 213.117188 134.28125 212.664062 C 134.1875 212.214844 134.058594 211.777344 133.890625 211.347656 C 133.726562 210.917969 133.527344 210.507812 133.289062 210.113281 C 133.054688 209.71875 132.789062 209.347656 132.492188 208.996094 C 132.195312 208.648438 131.871094 208.324219 131.519531 208.027344 C 131.167969 207.734375 130.792969 207.46875 130.398438 207.234375 C 130 207.003906 129.589844 206.804688 129.160156 206.640625 C 128.730469 206.476562 128.289062 206.351562 127.839844 206.261719 C 114.269531 203.515625 103.667969 193.292969 99.789062 180.070312 C 103.289062 180.917969 106.355469 182.808594 110.078125 182.929688 C 110.96875 182.957031 111.839844 182.839844 112.691406 182.585938 C 113.546875 182.328125 114.339844 181.941406 115.066406 181.429688 C 115.792969 180.914062 116.421875 180.296875 116.949219 179.578125 C 117.476562 178.859375 117.878906 178.078125 118.152344 177.226562 C 118.421875 176.378906 118.554688 175.507812 118.542969 174.617188 C 118.535156 173.726562 118.382812 172.859375 118.089844 172.019531 C 117.796875 171.175781 117.378906 170.402344 116.832031 169.695312 C 116.289062 168.992188 115.648438 168.390625 114.90625 167.890625 C 104.890625 161.179688 98.3125 149.777344 98.3125 136.730469 C 98.3125 134.039062 99.757812 131.898438 100.289062 129.378906 C 123.621094 152.53125 154.671875 167.902344 189.636719 169.671875 C 189.953125 169.691406 190.269531 169.6875 190.585938 169.667969 C 190.902344 169.644531 191.21875 169.605469 191.53125 169.550781 C 191.84375 169.492188 192.148438 169.417969 192.453125 169.324219 C 192.757812 169.230469 193.054688 169.121094 193.34375 168.992188 C 193.636719 168.867188 193.917969 168.722656 194.191406 168.5625 C 194.46875 168.402344 194.730469 168.226562 194.984375 168.035156 C 195.238281 167.84375 195.480469 167.640625 195.710938 167.421875 C 195.941406 167.203125 196.15625 166.96875 196.359375 166.726562 C 196.5625 166.484375 196.75 166.226562 196.925781 165.960938 C 197.097656 165.695312 197.257812 165.421875 197.398438 165.136719 C 197.539062 164.851562 197.664062 164.5625 197.773438 164.261719 C 197.882812 163.964844 197.972656 163.660156 198.042969 163.351562 C 198.117188 163.042969 198.171875 162.730469 198.207031 162.414062 C 198.246094 162.101562 198.265625 161.785156 198.265625 161.464844 C 198.265625 161.148438 198.246094 160.832031 198.207031 160.515625 C 198.171875 160.203125 198.117188 159.890625 198.042969 159.582031 C 197.402344 156.867188 197.082031 154.03125 197.082031 151.074219 C 197.082031 130.304688 213.683594 113.65625 234.375 113.65625 Z M 234.375 113.65625 "/>
</g>
</g>
</svg>
