<?xml version="1.0" encoding="UTF-8"?>
<svg xmlns="http://www.w3.org/2000/svg" xmlns:xlink="http://www.w3.org/1999/xlink" width="375pt" height="374.999991pt" viewBox="0 0 375 374.999991" version="1.2">
<defs>
<clipPath id="clip1">
  <path d="M 3.75 2 L 371.25 2 L 371.25 373 L 3.75 373 Z M 3.75 2 "/>
</clipPath>
</defs>
<g id="surface1">
<path style=" stroke:none;fill-rule:nonzero;fill:rgb(50.588989%,69.018555%,47.059631%);fill-opacity:1;" d="M 201.417969 169.28125 L 201.417969 168.707031 C 201.300781 168.894531 201.171875 169.09375 201.046875 169.28125 Z M 201.417969 169.28125 "/>
<g clip-path="url(#clip1)" clip-rule="nonzero">
<path style=" stroke:none;fill-rule:nonzero;fill:rgb(50.588989%,69.018555%,47.059631%);fill-opacity:1;" d="M 344.207031 2.386719 L 30.867188 2.386719 C 15.859375 2.386719 3.707031 14.269531 3.707031 28.894531 L 3.707031 345.898438 C 3.707031 360.53125 15.867188 372.394531 30.867188 372.394531 L 344.207031 372.394531 C 359.226562 372.394531 371.382812 360.515625 371.382812 345.898438 L 371.382812 28.894531 C 371.390625 14.253906 359.21875 2.386719 344.207031 2.386719 Z M 115.152344 312.136719 L 59.617188 312.136719 L 59.617188 145.058594 L 115.160156 145.058594 L 115.160156 312.136719 Z M 87.390625 122.234375 L 87.019531 122.234375 C 68.390625 122.234375 56.339844 109.394531 56.339844 93.371094 C 56.339844 76.980469 68.761719 64.507812 87.753906 64.507812 C 106.761719 64.507812 118.441406 76.980469 118.8125 93.371094 C 118.8125 109.402344 106.746094 122.234375 87.390625 122.234375 Z M 315.410156 312.136719 L 259.875 312.136719 L 259.875 222.730469 C 259.875 200.28125 251.84375 184.957031 231.75 184.957031 C 216.410156 184.957031 207.273438 195.296875 203.25 205.273438 C 201.785156 208.835938 201.425781 213.8125 201.425781 218.8125 L 201.425781 312.128906 L 145.890625 312.128906 C 145.890625 312.128906 146.621094 160.710938 145.890625 145.042969 L 201.425781 145.042969 L 201.425781 168.699219 C 208.804688 157.320312 222.003906 141.109375 251.484375 141.109375 C 288.019531 141.109375 315.425781 164.996094 315.425781 216.3125 Z M 315.410156 312.136719 "/>
</g>
</g>
</svg>
