<?xml version="1.0" encoding="UTF-8"?>
<svg xmlns="http://www.w3.org/2000/svg" xmlns:xlink="http://www.w3.org/1999/xlink" width="375pt" height="374.999991pt" viewBox="0 0 375 374.999991" version="1.2">
<defs>
<clipPath id="clip1">
  <path d="M 6.195312 6.195312 L 368.445312 6.195312 L 368.445312 368.445312 L 6.195312 368.445312 Z M 6.195312 6.195312 "/>
</clipPath>
</defs>
<g id="surface1">
<g clip-path="url(#clip1)" clip-rule="nonzero">
<path style=" stroke:none;fill-rule:nonzero;fill:rgb(50.588989%,69.018555%,47.059631%);fill-opacity:1;" d="M 75.859375 6.195312 C 37.542969 6.195312 6.195312 37.542969 6.195312 75.859375 L 6.195312 298.78125 C 6.195312 337.097656 37.542969 368.445312 75.859375 368.445312 L 298.78125 368.445312 C 337.097656 368.445312 368.445312 337.097656 368.445312 298.78125 L 368.445312 75.859375 C 368.445312 37.542969 337.097656 6.195312 298.78125 6.195312 Z M 75.859375 34.0625 L 298.78125 34.0625 C 322.050781 34.0625 340.582031 52.589844 340.582031 75.859375 L 340.582031 298.78125 C 340.582031 322.050781 322.050781 340.582031 298.78125 340.582031 L 254.316406 340.582031 L 254.316406 228.195312 L 293.230469 228.195312 L 299.054688 183.347656 L 254.316406 183.347656 L 254.316406 154.773438 C 254.316406 141.789062 257.933594 132.949219 276.6875 132.949219 L 300.632812 132.949219 L 300.632812 92.839844 C 296.480469 92.28125 282.269531 91.097656 265.746094 91.097656 C 231.25 91.097656 207.675781 111.96875 207.675781 150.3125 L 207.675781 183.347656 L 173.386719 183.238281 L 173.386719 228.085938 L 207.675781 228.195312 L 207.675781 340.582031 L 75.859375 340.582031 C 52.589844 340.582031 34.0625 322.050781 34.0625 298.78125 L 34.0625 75.859375 C 34.0625 52.589844 52.589844 34.0625 75.859375 34.0625 Z M 75.859375 34.0625 "/>
</g>
</g>
</svg>
