<?xml version="1.0" encoding="UTF-8"?>
<svg xmlns="http://www.w3.org/2000/svg" xmlns:xlink="http://www.w3.org/1999/xlink" width="375pt" height="374.999991pt" viewBox="0 0 375 374.999991" version="1.2">
<defs>
<clipPath id="clip1">
  <path d="M 3.914062 3.914062 L 372.164062 3.914062 L 372.164062 372.164062 L 3.914062 372.164062 Z M 3.914062 3.914062 "/>
</clipPath>
</defs>
<g id="surface1">
<g clip-path="url(#clip1)" clip-rule="nonzero">
<path style=" stroke:none;fill-rule:nonzero;fill:rgb(50.588989%,69.018555%,47.059631%);fill-opacity:1;" d="M 3.914062 3.914062 L 372.164062 3.914062 L 372.164062 372.164062 L 3.914062 372.164062 Z M 3.914062 3.914062 "/>
</g>
<path style=" stroke:none;fill-rule:nonzero;fill:rgb(100%,100%,100%);fill-opacity:1;" d="M 91.789062 127.070312 C 92.097656 124.03125 90.9375 121.03125 88.671875 118.988281 L 65.574219 91.164062 L 65.574219 87.003906 L 137.296875 87.003906 L 192.726562 208.578125 L 241.476562 87.003906 L 309.847656 87.003906 L 309.847656 91.164062 L 290.097656 110.097656 C 288.386719 111.394531 287.550781 113.527344 287.898438 115.640625 L 287.898438 254.769531 C 287.550781 256.882812 288.386719 259.011719 290.097656 260.308594 L 309.386719 279.25 L 309.386719 283.410156 L 212.363281 283.410156 L 212.363281 279.25 L 232.34375 259.847656 C 234.3125 257.890625 234.3125 257.316406 234.3125 254.308594 L 234.3125 141.851562 L 178.761719 282.949219 L 171.25 282.949219 L 106.574219 141.851562 L 106.574219 236.414062 C 106.035156 240.382812 107.355469 244.398438 110.15625 247.261719 L 136.140625 278.792969 L 136.140625 282.949219 L 62.453125 282.949219 L 62.453125 278.792969 L 88.441406 247.261719 C 91.21875 244.382812 92.464844 240.355469 91.789062 236.414062 Z M 91.789062 127.070312 "/>
</g>
</svg>
