<?xml version="1.0" encoding="UTF-8"?>
<svg xmlns="http://www.w3.org/2000/svg" xmlns:xlink="http://www.w3.org/1999/xlink" width="375pt" height="374.999991pt" viewBox="0 0 375 374.999991" version="1.2">
<defs>
<clipPath id="clip1">
  <path d="M 6.359375 85.976562 L 368.859375 85.976562 L 368.859375 289.226562 L 6.359375 289.226562 Z M 6.359375 85.976562 "/>
</clipPath>
</defs>
<g id="surface1">
<g clip-path="url(#clip1)" clip-rule="nonzero">
<path style=" stroke:none;fill-rule:nonzero;fill:rgb(50.588989%,69.018555%,47.059631%);fill-opacity:1;" d="M 346.742188 240.808594 C 349.46875 240.808594 351.691406 243.03125 351.691406 245.761719 C 351.691406 248.492188 349.46875 250.714844 346.742188 250.714844 C 344.011719 250.714844 341.789062 248.492188 341.789062 245.761719 C 341.789062 243.03125 344.011719 240.808594 346.742188 240.808594 Z M 281.398438 241.457031 C 284.128906 241.457031 286.351562 243.679688 286.351562 246.433594 C 286.351562 249.164062 284.128906 251.386719 281.398438 251.386719 C 278.667969 251.386719 276.449219 249.164062 276.449219 246.433594 C 276.449219 243.679688 278.667969 241.457031 281.398438 241.457031 Z M 360.183594 271.363281 C 362.914062 271.363281 365.136719 273.585938 365.136719 276.316406 C 365.136719 279.070312 362.914062 281.292969 360.183594 281.292969 C 357.453125 281.292969 355.207031 279.070312 355.207031 276.316406 C 355.207031 273.585938 357.453125 271.363281 360.183594 271.363281 Z M 219.480469 174.816406 L 155.992188 174.816406 L 155.992188 138.382812 C 155.992188 120.882812 170.246094 106.625 187.738281 106.625 C 205.25 106.625 219.480469 120.882812 219.480469 138.382812 Z M 201.132812 270.089844 L 174.085938 270.089844 L 180.933594 223.238281 C 176.445312 220.832031 173.414062 216.132812 173.414062 210.695312 C 173.414062 202.847656 179.777344 196.503906 187.621094 196.503906 C 195.464844 196.503906 201.804688 202.847656 201.804688 210.695312 C 201.804688 216.132812 198.773438 220.832031 194.308594 223.238281 Z M 15.058594 281.292969 C 12.304688 281.292969 10.082031 279.070312 10.082031 276.316406 C 10.082031 273.585938 12.304688 271.363281 15.058594 271.363281 C 17.789062 271.363281 20.011719 273.585938 20.011719 276.316406 C 20.011719 279.070312 17.789062 281.292969 15.058594 281.292969 Z M 93.820312 251.386719 C 91.089844 251.386719 88.867188 249.164062 88.867188 246.433594 C 88.867188 243.679688 91.089844 241.457031 93.820312 241.457031 C 96.550781 241.457031 98.769531 243.679688 98.769531 246.433594 C 98.769531 249.164062 96.550781 251.386719 93.820312 251.386719 Z M 28.476562 250.714844 C 25.746094 250.714844 23.527344 248.492188 23.527344 245.761719 C 23.527344 243.03125 25.746094 240.808594 28.476562 240.808594 C 31.230469 240.808594 33.453125 243.03125 33.453125 245.761719 C 33.453125 248.492188 31.230469 250.714844 28.476562 250.714844 Z M 15.058594 221.085938 C 12.304688 221.085938 10.082031 218.863281 10.082031 216.132812 C 10.082031 213.402344 12.304688 211.179688 15.058594 211.179688 C 17.789062 211.179688 20.011719 213.402344 20.011719 216.132812 C 20.011719 218.863281 17.789062 221.085938 15.058594 221.085938 Z M 93.820312 206.019531 C 91.089844 206.019531 88.867188 203.796875 88.867188 201.0625 C 88.867188 198.332031 91.089844 196.109375 93.820312 196.109375 C 96.550781 196.109375 98.769531 198.332031 98.769531 201.0625 C 98.769531 203.796875 96.550781 206.019531 93.820312 206.019531 Z M 45.667969 206.019531 C 42.941406 206.019531 40.695312 203.796875 40.695312 201.0625 C 40.695312 198.332031 42.941406 196.109375 45.667969 196.109375 C 48.398438 196.109375 50.621094 198.332031 50.621094 201.0625 C 50.621094 203.796875 48.398438 206.019531 45.667969 206.019531 Z M 15.058594 191.25 C 12.304688 191.25 10.082031 189.027344 10.082031 186.296875 C 10.082031 183.566406 12.304688 181.34375 15.058594 181.34375 C 17.789062 181.34375 20.011719 183.566406 20.011719 186.296875 C 20.011719 189.027344 17.789062 191.25 15.058594 191.25 Z M 33.707031 160.511719 C 30.976562 160.511719 28.757812 158.289062 28.757812 155.535156 C 28.757812 152.800781 30.976562 150.582031 33.707031 150.582031 C 36.4375 150.582031 38.683594 152.800781 38.683594 155.535156 C 38.683594 158.289062 36.4375 160.511719 33.707031 160.511719 Z M 82.992188 145.347656 C 80.261719 145.347656 78.039062 143.128906 78.039062 140.394531 C 78.039062 137.664062 80.261719 135.441406 82.992188 135.441406 C 85.722656 135.441406 87.941406 137.664062 87.941406 140.394531 C 87.941406 143.128906 85.722656 145.347656 82.992188 145.347656 Z M 31.09375 104.078125 C 28.363281 104.078125 26.140625 101.832031 26.140625 99.101562 C 26.140625 96.371094 28.363281 94.148438 31.09375 94.148438 C 33.847656 94.148438 36.066406 96.371094 36.066406 99.101562 C 36.066406 101.832031 33.847656 104.078125 31.09375 104.078125 Z M 344.125 94.148438 C 346.855469 94.148438 349.078125 96.371094 349.078125 99.101562 C 349.078125 101.832031 346.855469 104.078125 344.125 104.078125 C 341.394531 104.078125 339.175781 101.832031 339.175781 99.101562 C 339.175781 96.371094 341.394531 94.148438 344.125 94.148438 Z M 292.226562 135.441406 C 294.957031 135.441406 297.179688 137.664062 297.179688 140.394531 C 297.179688 143.128906 294.957031 145.347656 292.226562 145.347656 C 289.496094 145.347656 287.277344 143.128906 287.277344 140.394531 C 287.277344 137.664062 289.496094 135.441406 292.226562 135.441406 Z M 341.511719 150.582031 C 344.242188 150.582031 346.460938 152.800781 346.460938 155.535156 C 346.460938 158.289062 344.242188 160.511719 341.511719 160.511719 C 338.78125 160.511719 336.558594 158.289062 336.558594 155.535156 C 336.558594 152.800781 338.78125 150.582031 341.511719 150.582031 Z M 360.183594 181.34375 C 362.914062 181.34375 365.136719 183.566406 365.136719 186.296875 C 365.136719 189.027344 362.914062 191.25 360.183594 191.25 C 357.453125 191.25 355.207031 189.027344 355.207031 186.296875 C 355.207031 183.566406 357.453125 181.34375 360.183594 181.34375 Z M 329.570312 196.109375 C 332.300781 196.109375 334.523438 198.332031 334.523438 201.0625 C 334.523438 203.796875 332.300781 206.019531 329.570312 206.019531 C 326.820312 206.019531 324.597656 203.796875 324.597656 201.0625 C 324.597656 198.332031 326.820312 196.109375 329.570312 196.109375 Z M 281.398438 196.109375 C 284.128906 196.109375 286.351562 198.332031 286.351562 201.0625 C 286.351562 203.796875 284.128906 206.019531 281.398438 206.019531 C 278.667969 206.019531 276.449219 203.796875 276.449219 201.0625 C 276.449219 198.332031 278.667969 196.109375 281.398438 196.109375 Z M 360.183594 211.179688 C 362.914062 211.179688 365.136719 213.402344 365.136719 216.132812 C 365.136719 218.863281 362.914062 221.085938 360.183594 221.085938 C 357.453125 221.085938 355.207031 218.863281 355.207031 216.132812 C 355.207031 213.402344 357.453125 211.179688 360.183594 211.179688 Z M 351.691406 218.007812 C 352.546875 221.898438 356.019531 224.8125 360.183594 224.8125 C 364.972656 224.8125 368.859375 220.925781 368.859375 216.132812 C 368.859375 211.339844 364.972656 207.429688 360.183594 207.429688 C 356.019531 207.429688 352.546875 210.371094 351.691406 214.257812 L 259.371094 214.257812 L 259.371094 202.847656 L 272.90625 202.847656 C 273.71875 206.78125 277.234375 209.765625 281.398438 209.765625 C 286.1875 209.765625 290.097656 205.855469 290.097656 201.0625 C 290.097656 196.273438 286.1875 192.359375 281.398438 192.359375 C 277.28125 192.359375 273.832031 195.253906 272.929688 199.121094 L 259.371094 199.121094 L 259.371094 187.707031 L 297.0625 187.707031 L 312.289062 202.9375 L 321.082031 202.9375 C 321.9375 206.828125 325.40625 209.765625 329.570312 209.765625 C 334.363281 209.765625 338.25 205.855469 338.25 201.0625 C 338.25 196.273438 334.363281 192.359375 329.570312 192.359375 C 325.40625 192.359375 321.9375 195.300781 321.082031 199.1875 L 313.816406 199.1875 L 298.613281 183.957031 L 258.886719 183.957031 C 257.359375 178.679688 252.476562 174.816406 246.714844 174.816406 L 240.144531 174.816406 L 240.144531 172.546875 L 314.972656 172.546875 L 330.566406 188.171875 L 351.691406 188.171875 C 352.546875 192.058594 356.019531 194.976562 360.183594 194.976562 C 364.972656 194.976562 368.859375 191.085938 368.859375 186.296875 C 368.859375 181.503906 364.972656 177.59375 360.183594 177.59375 C 356.019531 177.59375 352.546875 180.53125 351.691406 184.421875 L 332.117188 184.421875 L 316.523438 168.820312 L 240.144531 168.820312 L 240.144531 157.410156 L 333.019531 157.410156 C 333.875 161.320312 337.347656 164.238281 341.511719 164.238281 C 346.300781 164.238281 350.1875 160.347656 350.1875 155.535156 C 350.1875 150.742188 346.300781 146.855469 341.511719 146.855469 C 337.347656 146.855469 333.875 149.769531 333.019531 153.683594 L 240.144531 153.683594 L 240.144531 142.269531 L 283.734375 142.269531 C 284.59375 146.160156 288.085938 149.097656 292.226562 149.097656 C 297.015625 149.097656 300.925781 145.1875 300.925781 140.394531 C 300.925781 135.605469 297.015625 131.691406 292.226562 131.691406 C 288.085938 131.691406 284.59375 134.632812 283.734375 138.519531 L 240.144531 138.519531 L 240.144531 138.382812 C 240.144531 134.515625 239.726562 130.742188 238.917969 127.109375 L 293.015625 127.109375 L 319.136719 100.976562 L 335.632812 100.976562 C 336.488281 104.863281 339.960938 107.804688 344.125 107.804688 C 348.914062 107.804688 352.800781 103.894531 352.800781 99.101562 C 352.800781 94.308594 348.914062 90.421875 344.125 90.421875 C 339.960938 90.421875 336.488281 93.335938 335.632812 97.25 L 317.585938 97.25 L 291.464844 123.382812 L 237.945312 123.382812 C 231.492188 101.761719 211.429688 85.976562 187.738281 85.976562 C 164.066406 85.976562 144.007812 101.761719 137.527344 123.382812 L 83.777344 123.382812 L 57.632812 97.25 L 39.585938 97.25 C 38.726562 93.335938 35.257812 90.421875 31.09375 90.421875 C 26.304688 90.421875 22.417969 94.308594 22.417969 99.101562 C 22.417969 103.894531 26.304688 107.804688 31.09375 107.804688 C 35.257812 107.804688 38.726562 104.863281 39.585938 100.976562 L 56.082031 100.976562 L 82.226562 127.109375 L 136.554688 127.109375 C 135.769531 130.742188 135.328125 134.515625 135.328125 138.382812 L 135.328125 138.519531 L 91.484375 138.519531 C 90.625 134.632812 87.15625 131.691406 82.992188 131.691406 C 78.203125 131.691406 74.316406 135.605469 74.316406 140.394531 C 74.316406 145.1875 78.203125 149.097656 82.992188 149.097656 C 87.15625 149.097656 90.625 146.160156 91.484375 142.269531 L 135.328125 142.269531 L 135.328125 153.683594 L 42.199219 153.683594 C 41.34375 149.769531 37.871094 146.855469 33.707031 146.855469 C 28.917969 146.855469 25.03125 150.742188 25.03125 155.535156 C 25.03125 160.347656 28.917969 164.238281 33.707031 164.238281 C 37.871094 164.238281 41.34375 161.320312 42.199219 157.410156 L 135.328125 157.410156 L 135.328125 168.820312 L 58.695312 168.820312 L 43.101562 184.421875 L 23.527344 184.421875 C 22.671875 180.53125 19.199219 177.59375 15.058594 177.59375 C 10.269531 177.59375 6.359375 181.503906 6.359375 186.296875 C 6.359375 191.085938 10.269531 194.976562 15.058594 194.976562 C 19.199219 194.976562 22.671875 192.058594 23.527344 188.171875 L 44.652344 188.171875 L 60.246094 172.546875 L 135.328125 172.546875 L 135.328125 174.816406 L 128.78125 174.816406 C 122.996094 174.816406 118.136719 178.679688 116.609375 183.957031 L 76.628906 183.957031 L 61.402344 199.1875 L 54.136719 199.1875 C 53.28125 195.300781 49.8125 192.359375 45.667969 192.359375 C 40.878906 192.359375 36.96875 196.273438 36.96875 201.0625 C 36.96875 205.855469 40.878906 209.765625 45.667969 209.765625 C 49.8125 209.765625 53.28125 206.828125 54.136719 202.9375 L 62.953125 202.9375 L 78.179688 187.707031 L 116.101562 187.707031 L 116.101562 199.121094 L 102.289062 199.121094 C 101.410156 195.253906 97.9375 192.359375 93.820312 192.359375 C 89.03125 192.359375 85.121094 196.273438 85.121094 201.0625 C 85.121094 205.855469 89.03125 209.765625 93.820312 209.765625 C 98.007812 209.765625 101.5 206.78125 102.335938 202.847656 L 116.101562 202.847656 L 116.101562 214.257812 L 23.527344 214.257812 C 22.671875 210.371094 19.199219 207.429688 15.058594 207.429688 C 10.269531 207.429688 6.359375 211.339844 6.359375 216.132812 C 6.359375 220.925781 10.269531 224.8125 15.058594 224.8125 C 19.199219 224.8125 22.671875 221.898438 23.527344 218.007812 L 116.101562 218.007812 L 116.101562 229.417969 L 82.226562 229.417969 L 67.742188 243.886719 L 36.96875 243.886719 C 36.113281 239.996094 32.644531 237.058594 28.476562 237.058594 C 23.6875 237.058594 19.800781 240.96875 19.800781 245.761719 C 19.800781 250.554688 23.6875 254.441406 28.476562 254.441406 C 32.644531 254.441406 36.113281 251.523438 36.96875 247.636719 L 69.292969 247.636719 L 83.777344 233.144531 L 116.101562 233.144531 L 116.101562 244.558594 L 102.3125 244.558594 C 101.457031 240.644531 97.960938 237.730469 93.820312 237.730469 C 89.03125 237.730469 85.121094 241.617188 85.121094 246.433594 C 85.121094 251.222656 89.03125 255.113281 93.820312 255.113281 C 97.960938 255.113281 101.457031 252.195312 102.3125 248.285156 L 116.101562 248.285156 L 116.101562 259.695312 L 47.496094 259.695312 L 32.757812 274.464844 L 23.527344 274.464844 C 22.671875 270.550781 19.199219 267.636719 15.058594 267.636719 C 10.269531 267.636719 6.359375 271.523438 6.359375 276.316406 C 6.359375 281.128906 10.269531 285.019531 15.058594 285.019531 C 19.199219 285.019531 22.671875 282.101562 23.527344 278.191406 L 34.285156 278.191406 L 49.046875 263.445312 L 116.101562 263.445312 L 116.101562 276.777344 C 116.101562 283.792969 121.769531 289.464844 128.78125 289.464844 L 246.714844 289.464844 C 253.703125 289.464844 259.371094 283.792969 259.371094 276.777344 L 259.371094 263.445312 L 326.171875 263.445312 L 340.933594 278.191406 L 351.691406 278.191406 C 352.546875 282.101562 356.019531 285.019531 360.183594 285.019531 C 364.972656 285.019531 368.859375 281.128906 368.859375 276.316406 C 368.859375 271.523438 364.972656 267.636719 360.183594 267.636719 C 356.019531 267.636719 352.546875 270.550781 351.691406 274.464844 L 342.484375 274.464844 L 327.722656 259.695312 L 259.371094 259.695312 L 259.371094 248.285156 L 272.90625 248.285156 C 273.761719 252.195312 277.257812 255.113281 281.398438 255.113281 C 286.1875 255.113281 290.097656 251.222656 290.097656 246.433594 C 290.097656 241.617188 286.1875 237.730469 281.398438 237.730469 C 277.257812 237.730469 273.761719 240.644531 272.90625 244.558594 L 259.371094 244.558594 L 259.371094 233.144531 L 291.464844 233.144531 L 305.925781 247.636719 L 338.25 247.636719 C 339.105469 251.523438 342.574219 254.441406 346.742188 254.441406 C 351.53125 254.441406 355.417969 250.554688 355.417969 245.761719 C 355.417969 240.96875 351.53125 237.058594 346.742188 237.058594 C 342.574219 237.058594 339.105469 239.996094 338.25 243.886719 L 307.476562 243.886719 L 293.015625 229.417969 L 259.371094 229.417969 L 259.371094 218.007812 L 351.691406 218.007812 "/>
</g>
</g>
</svg>
