<?xml version="1.0" encoding="UTF-8"?>
<svg xmlns="http://www.w3.org/2000/svg" xmlns:xlink="http://www.w3.org/1999/xlink" width="375pt" height="374.999991pt" viewBox="0 0 375 374.999991" version="1.2">
<defs>
<clipPath id="clip1">
  <path d="M 9.160156 73.363281 L 247 73.363281 L 247 275 L 9.160156 275 Z M 9.160156 73.363281 "/>
</clipPath>
<clipPath id="clip2">
  <path d="M 170 139 L 366.160156 139 L 366.160156 301 L 170 301 Z M 170 139 "/>
</clipPath>
</defs>
<g id="surface1">
<g clip-path="url(#clip1)" clip-rule="nonzero">
<path style=" stroke:none;fill-rule:nonzero;fill:rgb(50.588989%,69.018555%,47.059631%);fill-opacity:1;" d="M 154.074219 220.644531 L 154.074219 156.28125 C 154.074219 139.644531 166.984375 126.152344 182.914062 126.152344 L 246.015625 126.152344 L 246.015625 110.8125 C 246.015625 90.230469 230.027344 73.539062 210.328125 73.539062 L 44.84375 73.539062 C 25.140625 73.539062 9.160156 90.230469 9.160156 110.8125 L 9.160156 190.449219 C 9.160156 211.03125 25.140625 227.726562 44.84375 227.726562 L 72.152344 227.726562 L 72.152344 271.730469 C 72.152344 274.160156 75.492188 275.867188 77.226562 273.832031 C 90.242188 258.460938 103.242188 243.097656 116.257812 227.726562 L 154.902344 227.726562 C 154.375 225.449219 154.074219 223.089844 154.074219 220.644531 Z M 154.074219 220.644531 "/>
</g>
<g clip-path="url(#clip2)" clip-rule="nonzero">
<path style=" stroke:none;fill-rule:nonzero;fill:rgb(50.588989%,69.018555%,47.059631%);fill-opacity:1;" d="M 170.445312 166.894531 L 170.445312 238.742188 C 170.445312 253.746094 182.09375 265.914062 196.464844 265.914062 L 265.046875 265.914062 C 274.535156 277.117188 284.011719 288.320312 293.5 299.523438 C 294.761719 301.019531 297.195312 299.765625 297.195312 298 L 297.195312 265.914062 L 340.140625 265.914062 C 354.511719 265.914062 366.160156 253.746094 366.160156 238.742188 L 366.160156 166.894531 C 366.160156 151.890625 354.511719 139.714844 340.140625 139.714844 L 196.464844 139.714844 C 182.09375 139.714844 170.445312 151.886719 170.445312 166.894531 Z M 170.445312 166.894531 "/>
</g>
</g>
</svg>
