<?xml version="1.0" encoding="UTF-8"?>
<svg xmlns="http://www.w3.org/2000/svg" xmlns:xlink="http://www.w3.org/1999/xlink" width="375pt" height="374.999991pt" viewBox="0 0 375 374.999991" version="1.2">
<defs>
<clipPath id="clip1">
  <path d="M 28.050781 11 L 348.300781 11 L 348.300781 366.335938 L 28.050781 366.335938 Z M 28.050781 11 "/>
</clipPath>
</defs>
<g id="surface1">
<path style=" stroke:none;fill-rule:nonzero;fill:rgb(50.588989%,69.018555%,47.059631%);fill-opacity:1;" d="M 188.175781 117.617188 C 187.011719 117.617188 185.851562 117.644531 184.6875 117.703125 C 183.527344 117.757812 182.367188 117.84375 181.210938 117.957031 C 180.054688 118.070312 178.898438 118.214844 177.75 118.386719 C 176.597656 118.554688 175.453125 118.753906 174.3125 118.980469 C 173.171875 119.207031 172.039062 119.460938 170.910156 119.746094 C 169.78125 120.027344 168.660156 120.335938 167.550781 120.675781 C 166.4375 121.011719 165.332031 121.378906 164.238281 121.769531 C 163.144531 122.160156 162.058594 122.578125 160.984375 123.023438 C 159.910156 123.46875 158.847656 123.941406 157.796875 124.4375 C 156.742188 124.933594 155.707031 125.457031 154.679688 126.003906 C 153.65625 126.550781 152.644531 127.125 151.644531 127.722656 C 150.648438 128.320312 149.667969 128.941406 148.699219 129.589844 C 147.730469 130.234375 146.78125 130.902344 145.847656 131.597656 C 144.914062 132.289062 143.996094 133.003906 143.097656 133.742188 C 142.199219 134.480469 141.320312 135.238281 140.457031 136.019531 C 139.597656 136.800781 138.753906 137.601562 137.933594 138.421875 C 137.109375 139.246094 136.308594 140.085938 135.527344 140.949219 C 134.746094 141.808594 133.988281 142.691406 133.25 143.589844 C 132.511719 144.488281 131.796875 145.402344 131.101562 146.335938 C 130.410156 147.273438 129.742188 148.222656 129.09375 149.1875 C 128.449219 150.15625 127.828125 151.136719 127.230469 152.132812 C 126.632812 153.132812 126.058594 154.144531 125.511719 155.167969 C 124.960938 156.195312 124.4375 157.230469 123.941406 158.28125 C 123.445312 159.332031 122.972656 160.394531 122.527344 161.46875 C 122.082031 162.542969 121.664062 163.628906 121.273438 164.722656 C 120.882812 165.816406 120.515625 166.921875 120.179688 168.035156 C 119.84375 169.148438 119.53125 170.265625 119.25 171.394531 C 118.96875 172.523438 118.710938 173.65625 118.484375 174.796875 C 118.257812 175.9375 118.058594 177.082031 117.890625 178.234375 C 117.71875 179.382812 117.578125 180.535156 117.460938 181.691406 C 117.347656 182.851562 117.261719 184.007812 117.207031 185.171875 C 117.148438 186.332031 117.121094 187.492188 117.121094 188.65625 C 117.121094 189.820312 117.148438 190.980469 117.207031 192.140625 C 117.261719 193.304688 117.347656 194.460938 117.460938 195.621094 C 117.578125 196.777344 117.71875 197.929688 117.890625 199.078125 C 118.058594 200.230469 118.257812 201.375 118.484375 202.515625 C 118.710938 203.65625 118.96875 204.789062 119.25 205.917969 C 119.53125 207.046875 119.84375 208.164062 120.179688 209.277344 C 120.515625 210.390625 120.882812 211.496094 121.273438 212.589844 C 121.664062 213.683594 122.082031 214.769531 122.527344 215.84375 C 122.972656 216.917969 123.445312 217.980469 123.941406 219.03125 C 124.4375 220.082031 124.960938 221.117188 125.511719 222.144531 C 126.058594 223.167969 126.632812 224.179688 127.230469 225.179688 C 127.828125 226.175781 128.449219 227.15625 129.09375 228.125 C 129.742188 229.089844 130.410156 230.039062 131.101562 230.976562 C 131.796875 231.910156 132.511719 232.824219 133.25 233.722656 C 133.988281 234.621094 134.746094 235.503906 135.527344 236.363281 C 136.308594 237.226562 137.109375 238.066406 137.933594 238.890625 C 138.753906 239.710938 139.597656 240.511719 140.457031 241.292969 C 141.320312 242.074219 142.199219 242.832031 143.097656 243.570312 C 143.996094 244.308594 144.914062 245.023438 145.847656 245.714844 C 146.78125 246.410156 147.730469 247.078125 148.699219 247.722656 C 149.667969 248.371094 150.648438 248.992188 151.644531 249.589844 C 152.644531 250.1875 153.65625 250.761719 154.679688 251.308594 C 155.707031 251.855469 156.742188 252.378906 157.796875 252.875 C 158.847656 253.371094 159.910156 253.84375 160.984375 254.289062 C 162.058594 254.734375 163.144531 255.152344 164.238281 255.542969 C 165.332031 255.933594 166.4375 256.300781 167.550781 256.636719 C 168.660156 256.976562 169.78125 257.285156 170.910156 257.566406 C 172.039062 257.851562 173.171875 258.105469 174.3125 258.332031 C 175.453125 258.558594 176.597656 258.757812 177.75 258.925781 C 178.898438 259.097656 180.054688 259.242188 181.210938 259.355469 C 182.367188 259.46875 183.527344 259.554688 184.6875 259.609375 C 185.851562 259.667969 187.011719 259.695312 188.175781 259.695312 C 189.339844 259.695312 190.5 259.667969 191.660156 259.609375 C 192.824219 259.554688 193.984375 259.46875 195.140625 259.355469 C 196.296875 259.242188 197.449219 259.097656 198.601562 258.925781 C 199.75 258.757812 200.898438 258.558594 202.039062 258.332031 C 203.179688 258.105469 204.3125 257.851562 205.441406 257.566406 C 206.566406 257.285156 207.6875 256.976562 208.800781 256.636719 C 209.914062 256.300781 211.019531 255.933594 212.113281 255.542969 C 213.207031 255.152344 214.292969 254.734375 215.367188 254.289062 C 216.441406 253.84375 217.503906 253.371094 218.554688 252.875 C 219.605469 252.378906 220.644531 251.855469 221.671875 251.308594 C 222.695312 250.761719 223.707031 250.1875 224.703125 249.589844 C 225.703125 248.992188 226.683594 248.371094 227.652344 247.722656 C 228.617188 247.078125 229.570312 246.410156 230.503906 245.714844 C 231.4375 245.023438 232.351562 244.308594 233.253906 243.570312 C 234.152344 242.832031 235.03125 242.074219 235.894531 241.292969 C 236.753906 240.511719 237.597656 239.710938 238.417969 238.890625 C 239.242188 238.066406 240.042969 237.226562 240.824219 236.363281 C 241.605469 235.503906 242.363281 234.621094 243.101562 233.722656 C 243.839844 232.824219 244.554688 231.910156 245.246094 230.976562 C 245.941406 230.039062 246.609375 229.089844 247.253906 228.125 C 247.902344 227.15625 248.523438 226.175781 249.121094 225.179688 C 249.71875 224.179688 250.292969 223.167969 250.839844 222.144531 C 251.386719 221.117188 251.910156 220.082031 252.410156 219.03125 C 252.90625 217.980469 253.375 216.917969 253.820312 215.84375 C 254.265625 214.769531 254.683594 213.683594 255.078125 212.589844 C 255.46875 211.496094 255.832031 210.390625 256.171875 209.277344 C 256.507812 208.164062 256.820312 207.046875 257.101562 205.917969 C 257.382812 204.789062 257.636719 203.65625 257.863281 202.515625 C 258.09375 201.375 258.289062 200.230469 258.460938 199.078125 C 258.632812 197.929688 258.773438 196.777344 258.886719 195.621094 C 259.003906 194.460938 259.085938 193.304688 259.144531 192.140625 C 259.203125 190.980469 259.230469 189.820312 259.230469 188.65625 C 259.230469 187.492188 259.199219 186.332031 259.140625 185.171875 C 259.082031 184.011719 258.996094 182.851562 258.882812 181.695312 C 258.765625 180.539062 258.621094 179.386719 258.449219 178.238281 C 258.28125 177.085938 258.078125 175.941406 257.851562 174.800781 C 257.625 173.664062 257.367188 172.53125 257.085938 171.402344 C 256.800781 170.273438 256.492188 169.15625 256.152344 168.042969 C 255.816406 166.929688 255.449219 165.828125 255.058594 164.734375 C 254.664062 163.640625 254.246094 162.554688 253.800781 161.484375 C 253.355469 160.410156 252.882812 159.347656 252.386719 158.296875 C 251.886719 157.246094 251.363281 156.207031 250.816406 155.183594 C 250.269531 154.160156 249.695312 153.148438 249.097656 152.152344 C 248.5 151.15625 247.875 150.171875 247.230469 149.207031 C 246.585938 148.242188 245.914062 147.292969 245.222656 146.359375 C 244.53125 145.425781 243.816406 144.507812 243.078125 143.609375 C 242.339844 142.710938 241.582031 141.832031 240.800781 140.972656 C 240.019531 140.109375 239.21875 139.269531 238.394531 138.445312 C 237.574219 137.625 236.730469 136.824219 235.871094 136.042969 C 235.007812 135.261719 234.128906 134.503906 233.230469 133.765625 C 232.332031 133.027344 231.414062 132.3125 230.480469 131.621094 C 229.546875 130.929688 228.597656 130.257812 227.632812 129.613281 C 226.664062 128.96875 225.683594 128.34375 224.6875 127.746094 C 223.691406 127.148438 222.679688 126.578125 221.65625 126.027344 C 220.628906 125.480469 219.589844 124.957031 218.542969 124.460938 C 217.492188 123.960938 216.429688 123.492188 215.355469 123.046875 C 214.28125 122.601562 213.195312 122.179688 212.101562 121.789062 C 211.007812 121.398438 209.90625 121.03125 208.792969 120.691406 C 207.679688 120.355469 206.558594 120.042969 205.433594 119.761719 C 204.304688 119.476562 203.171875 119.222656 202.03125 118.996094 C 200.890625 118.765625 199.746094 118.566406 198.597656 118.394531 C 197.449219 118.222656 196.292969 118.082031 195.136719 117.964844 C 193.980469 117.851562 192.820312 117.765625 191.660156 117.707031 C 190.5 117.648438 189.335938 117.617188 188.175781 117.617188 Z M 221.117188 177.191406 L 185.589844 212.714844 C 185.175781 213.125 184.726562 213.488281 184.238281 213.8125 C 183.75 214.132812 183.238281 214.40625 182.699219 214.625 C 182.15625 214.847656 181.601562 215.015625 181.027344 215.128906 C 180.457031 215.242188 179.878906 215.296875 179.292969 215.296875 C 178.710938 215.296875 178.132812 215.242188 177.558594 215.128906 C 176.984375 215.015625 176.429688 214.847656 175.890625 214.625 C 175.347656 214.40625 174.835938 214.132812 174.347656 213.8125 C 173.863281 213.488281 173.410156 213.125 172.996094 212.714844 L 155.230469 194.953125 C 154.816406 194.539062 154.449219 194.089844 154.121094 193.605469 C 153.796875 193.117188 153.523438 192.605469 153.296875 192.0625 C 153.074219 191.523438 152.902344 190.964844 152.789062 190.394531 C 152.675781 189.820312 152.617188 189.238281 152.617188 188.65625 C 152.617188 188.070312 152.675781 187.492188 152.789062 186.917969 C 152.902344 186.34375 153.070312 185.785156 153.296875 185.246094 C 153.519531 184.703125 153.792969 184.191406 154.117188 183.703125 C 154.445312 183.21875 154.8125 182.769531 155.226562 182.355469 C 155.640625 181.941406 156.089844 181.570312 156.578125 181.246094 C 157.0625 180.921875 157.578125 180.648438 158.117188 180.421875 C 158.660156 180.199219 159.214844 180.03125 159.789062 179.917969 C 160.363281 179.804688 160.941406 179.746094 161.527344 179.746094 C 162.113281 179.746094 162.691406 179.804688 163.265625 179.917969 C 163.839844 180.03125 164.398438 180.203125 164.9375 180.425781 C 165.476562 180.652344 165.992188 180.925781 166.476562 181.25 C 166.964844 181.574219 167.414062 181.945312 167.828125 182.359375 L 179.292969 193.824219 L 208.523438 164.597656 C 208.9375 164.183594 209.386719 163.816406 209.871094 163.492188 C 210.359375 163.164062 210.871094 162.890625 211.414062 162.667969 C 211.953125 162.441406 212.511719 162.273438 213.085938 162.160156 C 213.65625 162.042969 214.238281 161.988281 214.824219 161.988281 C 215.40625 161.984375 215.988281 162.042969 216.5625 162.15625 C 217.136719 162.269531 217.691406 162.441406 218.234375 162.664062 C 218.773438 162.886719 219.285156 163.160156 219.773438 163.488281 C 220.261719 163.8125 220.710938 164.179688 221.125 164.59375 C 221.539062 165.007812 221.90625 165.457031 222.230469 165.945312 C 222.558594 166.429688 222.832031 166.945312 223.054688 167.484375 C 223.277344 168.027344 223.449219 168.582031 223.5625 169.15625 C 223.675781 169.730469 223.734375 170.308594 223.734375 170.894531 C 223.734375 171.480469 223.675781 172.058594 223.5625 172.632812 C 223.445312 173.207031 223.277344 173.761719 223.054688 174.304688 C 222.828125 174.84375 222.554688 175.359375 222.226562 175.84375 C 221.902344 176.328125 221.53125 176.78125 221.117188 177.191406 Z M 221.117188 177.191406 "/>
<g clip-path="url(#clip1)" clip-rule="nonzero">
<path style=" stroke:none;fill-rule:nonzero;fill:rgb(50.588989%,69.018555%,47.059631%);fill-opacity:1;" d="M 339.167969 64.335938 C 287.492188 64.335938 219.503906 46.898438 195.28125 14.609375 C 191.890625 10.085938 184.460938 10.085938 181.070312 14.609375 C 156.847656 46.898438 88.859375 64.335938 37.183594 64.335938 C 36.601562 64.335938 36.023438 64.394531 35.449219 64.507812 C 34.878906 64.621094 34.324219 64.789062 33.785156 65.011719 C 33.246094 65.234375 32.734375 65.507812 32.25 65.832031 C 31.761719 66.15625 31.316406 66.523438 30.902344 66.9375 C 30.488281 67.347656 30.121094 67.796875 29.796875 68.28125 C 29.472656 68.765625 29.199219 69.277344 28.976562 69.816406 C 28.753906 70.355469 28.585938 70.910156 28.472656 71.484375 C 28.359375 72.054688 28.300781 72.632812 28.300781 73.214844 L 28.300781 188.65625 C 28.300781 286.253906 113.082031 345.1875 185.753906 365.933594 C 187.367188 366.371094 188.984375 366.371094 190.597656 365.933594 C 263.269531 345.1875 348.050781 286.253906 348.050781 188.65625 L 348.050781 73.214844 C 348.050781 72.632812 347.992188 72.054688 347.878906 71.484375 C 347.765625 70.910156 347.597656 70.355469 347.375 69.816406 C 347.148438 69.277344 346.875 68.765625 346.550781 68.28125 C 346.230469 67.796875 345.859375 67.347656 345.449219 66.9375 C 345.035156 66.523438 344.585938 66.15625 344.101562 65.832031 C 343.617188 65.507812 343.105469 65.234375 342.566406 65.011719 C 342.027344 64.789062 341.472656 64.621094 340.898438 64.507812 C 340.328125 64.394531 339.75 64.335938 339.167969 64.335938 Z M 188.175781 277.457031 C 186.722656 277.457031 185.269531 277.421875 183.816406 277.347656 C 182.367188 277.277344 180.917969 277.171875 179.46875 277.027344 C 178.023438 276.886719 176.582031 276.707031 175.144531 276.496094 C 173.703125 276.28125 172.273438 276.035156 170.847656 275.75 C 169.421875 275.464844 168.003906 275.148438 166.59375 274.796875 C 165.183594 274.441406 163.785156 274.054688 162.390625 273.632812 C 161 273.210938 159.621094 272.753906 158.253906 272.265625 C 156.882812 271.777344 155.527344 271.253906 154.1875 270.695312 C 152.84375 270.140625 151.515625 269.550781 150.199219 268.929688 C 148.886719 268.308594 147.589844 267.65625 146.304688 266.972656 C 145.023438 266.285156 143.761719 265.570312 142.511719 264.824219 C 141.265625 264.074219 140.039062 263.296875 138.832031 262.492188 C 137.621094 261.683594 136.433594 260.847656 135.265625 259.980469 C 134.097656 259.117188 132.953125 258.222656 131.828125 257.300781 C 130.707031 256.378906 129.605469 255.429688 128.527344 254.453125 C 127.449219 253.476562 126.398438 252.476562 125.371094 251.449219 C 124.34375 250.417969 123.339844 249.367188 122.363281 248.289062 C 121.386719 247.214844 120.4375 246.113281 119.515625 244.992188 C 118.59375 243.867188 117.699219 242.722656 116.835938 241.554688 C 115.96875 240.386719 115.132812 239.199219 114.324219 237.992188 C 113.515625 236.78125 112.738281 235.554688 111.992188 234.308594 C 111.246094 233.0625 110.527344 231.796875 109.84375 230.515625 C 109.160156 229.234375 108.503906 227.9375 107.882812 226.625 C 107.261719 225.308594 106.671875 223.980469 106.117188 222.636719 C 105.5625 221.296875 105.039062 219.941406 104.546875 218.570312 C 104.058594 217.203125 103.601562 215.824219 103.179688 214.433594 C 102.757812 213.042969 102.371094 211.644531 102.019531 210.234375 C 101.664062 208.824219 101.347656 207.40625 101.0625 205.980469 C 100.78125 204.554688 100.53125 203.125 100.316406 201.6875 C 100.105469 200.25 99.925781 198.804688 99.785156 197.359375 C 99.640625 195.914062 99.535156 194.464844 99.464844 193.011719 C 99.390625 191.5625 99.355469 190.109375 99.355469 188.65625 C 99.355469 187.203125 99.390625 185.75 99.464844 184.300781 C 99.535156 182.847656 99.640625 181.398438 99.785156 179.953125 C 99.925781 178.507812 100.105469 177.0625 100.316406 175.625 C 100.53125 174.1875 100.78125 172.757812 101.0625 171.332031 C 101.347656 169.90625 101.664062 168.488281 102.019531 167.078125 C 102.371094 165.667969 102.757812 164.269531 103.179688 162.878906 C 103.601562 161.488281 104.058594 160.109375 104.546875 158.742188 C 105.039062 157.371094 105.5625 156.015625 106.117188 154.675781 C 106.671875 153.332031 107.261719 152.003906 107.882812 150.6875 C 108.503906 149.375 109.160156 148.078125 109.84375 146.796875 C 110.527344 145.515625 111.246094 144.25 111.992188 143.003906 C 112.738281 141.757812 113.515625 140.53125 114.324219 139.320312 C 115.132812 138.113281 115.96875 136.925781 116.835938 135.757812 C 117.699219 134.589844 118.59375 133.445312 119.515625 132.320312 C 120.4375 131.199219 121.386719 130.097656 122.363281 129.023438 C 123.339844 127.945312 124.34375 126.894531 125.371094 125.863281 C 126.398438 124.835938 127.449219 123.835938 128.527344 122.859375 C 129.605469 121.882812 130.707031 120.933594 131.828125 120.011719 C 132.953125 119.089844 134.097656 118.195312 135.265625 117.332031 C 136.433594 116.464844 137.621094 115.628906 138.832031 114.820312 C 140.039062 114.015625 141.265625 113.238281 142.511719 112.488281 C 143.761719 111.742188 145.023438 111.027344 146.304688 110.339844 C 147.589844 109.65625 148.886719 109.003906 150.199219 108.382812 C 151.515625 107.761719 152.84375 107.171875 154.1875 106.617188 C 155.527344 106.058594 156.882812 105.535156 158.253906 105.046875 C 159.621094 104.558594 161 104.101562 162.390625 103.679688 C 163.785156 103.257812 165.183594 102.871094 166.59375 102.515625 C 168.003906 102.164062 169.421875 101.847656 170.847656 101.5625 C 172.273438 101.277344 173.703125 101.03125 175.144531 100.816406 C 176.582031 100.605469 178.023438 100.425781 179.46875 100.285156 C 180.917969 100.140625 182.367188 100.035156 183.816406 99.964844 C 185.269531 99.890625 186.722656 99.855469 188.175781 99.855469 C 189.628906 99.855469 191.082031 99.890625 192.535156 99.964844 C 193.984375 100.035156 195.433594 100.140625 196.882812 100.285156 C 198.328125 100.425781 199.769531 100.605469 201.207031 100.816406 C 202.644531 101.03125 204.078125 101.277344 205.503906 101.5625 C 206.929688 101.847656 208.347656 102.164062 209.757812 102.515625 C 211.167969 102.871094 212.566406 103.257812 213.957031 103.679688 C 215.347656 104.101562 216.730469 104.558594 218.097656 105.046875 C 219.464844 105.535156 220.820312 106.058594 222.164062 106.617188 C 223.507812 107.171875 224.835938 107.761719 226.148438 108.382812 C 227.464844 109.003906 228.761719 109.65625 230.042969 110.339844 C 231.328125 111.027344 232.589844 111.742188 233.835938 112.488281 C 235.085938 113.238281 236.3125 114.015625 237.519531 114.820312 C 238.730469 115.628906 239.917969 116.464844 241.085938 117.332031 C 242.253906 118.195312 243.398438 119.089844 244.523438 120.011719 C 245.644531 120.933594 246.746094 121.882812 247.824219 122.859375 C 248.898438 123.835938 249.953125 124.835938 250.980469 125.863281 C 252.007812 126.894531 253.007812 127.945312 253.984375 129.023438 C 254.960938 130.097656 255.910156 131.199219 256.832031 132.320312 C 257.753906 133.445312 258.648438 134.589844 259.515625 135.757812 C 260.382812 136.925781 261.21875 138.113281 262.027344 139.320312 C 262.832031 140.53125 263.609375 141.757812 264.359375 143.003906 C 265.105469 144.25 265.820312 145.515625 266.507812 146.796875 C 267.191406 148.078125 267.84375 149.375 268.464844 150.6875 C 269.089844 152.003906 269.675781 153.332031 270.234375 154.675781 C 270.789062 156.015625 271.3125 157.371094 271.800781 158.742188 C 272.292969 160.109375 272.746094 161.488281 273.167969 162.878906 C 273.589844 164.269531 273.980469 165.667969 274.332031 167.078125 C 274.6875 168.488281 275.003906 169.90625 275.289062 171.332031 C 275.570312 172.757812 275.820312 174.1875 276.03125 175.625 C 276.246094 177.0625 276.425781 178.507812 276.566406 179.953125 C 276.710938 181.398438 276.816406 182.847656 276.886719 184.300781 C 276.957031 185.75 276.996094 187.203125 276.996094 188.65625 C 276.992188 190.109375 276.957031 191.5625 276.882812 193.011719 C 276.8125 194.464844 276.703125 195.910156 276.558594 197.359375 C 276.414062 198.804688 276.238281 200.246094 276.023438 201.683594 C 275.808594 203.117188 275.558594 204.550781 275.273438 205.976562 C 274.988281 207.398438 274.671875 208.816406 274.316406 210.226562 C 273.960938 211.636719 273.574219 213.035156 273.152344 214.425781 C 272.730469 215.816406 272.273438 217.195312 271.78125 218.5625 C 271.292969 219.929688 270.769531 221.285156 270.210938 222.625 C 269.65625 223.96875 269.066406 225.296875 268.445312 226.609375 C 267.820312 227.921875 267.167969 229.21875 266.484375 230.5 C 265.796875 231.78125 265.082031 233.046875 264.332031 234.292969 C 263.585938 235.539062 262.808594 236.765625 262 237.972656 C 261.191406 239.179688 260.355469 240.367188 259.492188 241.535156 C 258.625 242.699219 257.730469 243.847656 256.808594 244.96875 C 255.886719 246.09375 254.9375 247.191406 253.960938 248.269531 C 252.984375 249.34375 251.984375 250.398438 250.957031 251.425781 C 249.929688 252.453125 248.875 253.453125 247.800781 254.429688 C 246.722656 255.40625 245.625 256.351562 244.5 257.273438 C 243.375 258.195312 242.230469 259.089844 241.0625 259.957031 C 239.898438 260.820312 238.710938 261.660156 237.5 262.464844 C 236.292969 263.273438 235.066406 264.050781 233.820312 264.796875 C 232.574219 265.546875 231.308594 266.261719 230.027344 266.945312 C 228.746094 267.632812 227.449219 268.285156 226.136719 268.90625 C 224.824219 269.53125 223.496094 270.117188 222.152344 270.675781 C 220.808594 271.230469 219.453125 271.753906 218.085938 272.246094 C 216.71875 272.734375 215.339844 273.191406 213.949219 273.613281 C 212.558594 274.039062 211.160156 274.425781 209.75 274.78125 C 208.339844 275.132812 206.921875 275.453125 205.496094 275.738281 C 204.074219 276.019531 202.640625 276.269531 201.203125 276.484375 C 199.765625 276.699219 198.324219 276.878906 196.878906 277.023438 C 195.433594 277.164062 193.984375 277.273438 192.53125 277.34375 C 191.082031 277.417969 189.628906 277.457031 188.175781 277.457031 Z M 188.175781 277.457031 "/>
</g>
</g>
</svg>
