<?xml version="1.0" encoding="UTF-8"?>
<svg xmlns="http://www.w3.org/2000/svg" xmlns:xlink="http://www.w3.org/1999/xlink" width="375pt" height="299.999988pt" viewBox="0 0 375 299.999988" version="1.2">
<defs>
<clipPath id="clip1">
  <path d="M 2.082031 0 L 372.582031 0 L 372.582031 300 L 2.082031 300 Z M 2.082031 0 "/>
</clipPath>
</defs>
<g id="surface1">
<g clip-path="url(#clip1)" clip-rule="nonzero">
<path style=" stroke:none;fill-rule:evenodd;fill:rgb(50.588989%,69.018555%,47.059631%);fill-opacity:1;" d="M 15.414062 -0.375 L 359.292969 -0.375 C 366.433594 -0.375 372.234375 5.433594 372.234375 12.59375 L 372.234375 72.128906 C 372.234375 79.285156 366.433594 85.097656 359.292969 85.097656 L 15.414062 85.097656 C 8.273438 85.097656 2.472656 79.285156 2.472656 72.128906 L 2.472656 12.59375 C 2.472656 5.433594 8.273438 -0.375 15.414062 -0.375 Z M 346.351562 25.5625 L 28.355469 25.5625 L 28.355469 59.160156 L 346.351562 59.160156 Z M 15.414062 107.242188 L 359.292969 107.242188 C 366.433594 107.242188 372.234375 113.054688 372.234375 120.210938 L 372.234375 179.746094 C 372.234375 186.90625 366.433594 192.71875 359.292969 192.71875 L 15.414062 192.71875 C 8.273438 192.71875 2.472656 186.90625 2.472656 179.746094 L 2.472656 120.210938 C 2.472656 113.054688 8.273438 107.242188 15.414062 107.242188 Z M 346.351562 133.179688 L 28.355469 133.179688 L 28.355469 166.777344 L 346.351562 166.777344 Z M 15.414062 214.863281 L 359.292969 214.863281 C 366.433594 214.863281 372.234375 220.671875 372.234375 227.832031 L 372.234375 287.367188 C 372.234375 294.523438 366.433594 300.335938 359.292969 300.335938 L 15.414062 300.335938 C 8.273438 300.335938 2.472656 294.523438 2.472656 287.367188 L 2.472656 227.832031 C 2.472656 220.671875 8.273438 214.863281 15.414062 214.863281 Z M 346.351562 240.800781 L 28.355469 240.800781 L 28.355469 274.398438 L 346.351562 274.398438 L 346.351562 240.800781 "/>
</g>
<path style=" stroke:none;fill-rule:evenodd;fill:rgb(67.059326%,83.139038%,56.469727%);fill-opacity:1;" d="M 346.351562 25.5625 L 28.355469 25.5625 L 28.355469 59.160156 L 346.351562 59.160156 L 346.351562 25.5625 "/>
<path style=" stroke:none;fill-rule:evenodd;fill:rgb(67.059326%,83.139038%,56.469727%);fill-opacity:1;" d="M 346.351562 133.179688 L 28.355469 133.179688 L 28.355469 166.777344 L 346.351562 166.777344 L 346.351562 133.179688 "/>
<path style=" stroke:none;fill-rule:evenodd;fill:rgb(67.059326%,83.139038%,56.469727%);fill-opacity:1;" d="M 346.351562 240.800781 L 28.355469 240.800781 L 28.355469 274.398438 L 346.351562 274.398438 L 346.351562 240.800781 "/>
</g>
</svg>
