<?xml version="1.0" encoding="UTF-8"?>
<svg xmlns="http://www.w3.org/2000/svg" xmlns:xlink="http://www.w3.org/1999/xlink" width="300pt" height="374.999991pt" viewBox="0 0 300 374.999991" version="1.2">
<g id="surface1">
<path style=" stroke:none;fill-rule:nonzero;fill:rgb(81.17981%,71.759033%,5.099487%);fill-opacity:1;" d="M 24.898438 55.28125 C 48.375 33.464844 89.53125 30.976562 115.769531 50.3125 C 144.21875 71.300781 150.847656 108.863281 155.269531 142.832031 C 167.144531 119.632812 179.023438 95.328125 199.738281 78.207031 C 220.453125 61.359375 253.042969 54.175781 275.417969 69.089844 C 296.683594 83.175781 301.105469 111.070312 300 135.652344 C 295.582031 231.488281 227.910156 321.246094 135.65625 359.914062 C 119.636719 318.210938 97.539062 278.4375 70.472656 241.984375 C 48.929688 213.535156 24.070312 186.46875 10.535156 153.878906 C -2.996094 121.289062 -1.617188 79.863281 24.898438 55.28125 Z M 24.898438 55.28125 "/>
</g>
</svg>
